<svg xmlns="http://www.w3.org/2000/svg" width="116mm" height="116mm" viewBox="0 0 116 116"><defs><marker orient="auto" refY="0" refX="0" id="e" overflow="visible"><path d="M2.3 0l-3.5 2v-4z" fill-rule="evenodd" stroke="#000" stroke-width=".4pt"/></marker><marker id="d" refX="0" refY="0" orient="auto" overflow="visible"><path d="M2.3 0l-3.5 2v-4z" fill-rule="evenodd" stroke="#000" stroke-width=".4pt"/></marker><marker id="c" refX="0" refY="0" orient="auto" overflow="visible"><path d="M-2.3 0l3.5-2v4z" fill-rule="evenodd" stroke="#000" stroke-width=".4pt"/></marker><marker orient="auto" refY="0" refX="0" id="b" overflow="visible"><path d="M2.3 0l-3.5 2v-4z" fill-rule="evenodd" stroke="#000" stroke-width=".4pt"/></marker><marker orient="auto" refY="0" refX="0" id="a" overflow="visible"><path d="M-2.3 0l3.5-2v4z" fill-rule="evenodd" stroke="#000" stroke-width=".4pt"/></marker></defs><path fill="#f9cba1" fill-rule="evenodd" d="M0 .3h115.3v115.3H0z"/><path fill="#c3ce8f" fill-rule="evenodd" stroke="#000" stroke-width="2" d="M18.5 18.9h78.2V97H18.5z"/><path fill="#8db7c0" fill-rule="evenodd" d="M35.1 35.4h45.2v45.2H35.1z"/><text style="line-height:1.25;-inkscape-font-specification:Montserrat" x="106.9" y="13.7" font-weight="400" font-size="8.5" font-family="Montserrat" letter-spacing="0" word-spacing="0" stroke-width=".3" transform="translate(-42.3 -1.3)"><tspan x="106.9" y="13.7" style="-inkscape-font-specification:Montserrat">Margin</tspan></text><path d="M101.6 4.2v12.5" fill="none" stroke="#000" marker-start="url(#a)" marker-end="url(#b)" transform="translate(-42.3 -1.3)"/><text y="92.9" x="99.2" style="line-height:1.25;-inkscape-font-specification:Montserrat" font-weight="400" font-size="8.5" font-family="Montserrat" letter-spacing="0" word-spacing="0" stroke-width=".3" transform="translate(-42.3 -1.3)"><tspan style="-inkscape-font-specification:Montserrat" y="92.9" x="99.2">Padding</tspan></text><path d="M93.9 83.4v12.5" fill="none" stroke="#000" marker-start="url(#c)" marker-end="url(#d)" transform="translate(-42.3 -1.3)"/><text style="line-height:1.25;-inkscape-font-specification:Montserrat" x="83.1" y="61.1" font-weight="400" font-size="8.5" font-family="Montserrat" letter-spacing="0" word-spacing="0" stroke-width=".3" transform="translate(-42.3 -1.3)"><tspan x="83.1" y="61.1" style="-inkscape-font-specification:Montserrat">Content</tspan></text><text y="15.6" x="47.1" style="line-height:1.25;-inkscape-font-specification:Montserrat" font-weight="400" font-size="8.5" font-family="Montserrat" letter-spacing="0" word-spacing="0" stroke-width=".3" transform="translate(-42.3 -1.3)"><tspan style="-inkscape-font-specification:Montserrat" y="15.6" x="47.1">Border</tspan></text><path d="M51.3 18.1a6.8 6.8 0 00.5 10 6.8 6.8 0 005.5 1.4" fill="none" stroke="#000" marker-end="url(#e)" transform="translate(-42.3 -1.3)"/></svg>